# xmcd CD database file
#
# Track frame offsets:
#	150
#	1989
#	14303
#	15462
#	29781
#	32853
#	46099
#	60732
#	66124
#	78183
#	100404
#	111735
#	115209
#	128445
#	132099
#	144842
#	171629
#	175573
#	188695
#	207002
#	219052
#	222006
#	245781
#	249502
#	265257
#	279766
#
# Disc length: 3947 seconds
#
# Revision: 0
# Processed by: cddbd v1.5PL3 Copyright (c) Steve Scherf et al.
# Submitted via: CDex 1.51
#
DISCID=650f691a
DTITLE=Trent Summar and The New Row Mob - Live at 12th and Porter
DYEAR=2003
DGENRE=Country
TTITLE0=Intro
TTITLE1=The Beat Don't Ever Stop
TTITLE2=Intro_2
TTITLE3=I'm Country
TTITLE4=Monolouge
TTITLE5=Paint Your Name in Purple
TTITLE6=Too Busy Missing You
TTITLE7=Intro_3
TTITLE8=New Money
TTITLE9=It Never Rains in California
TTITLE10=Metal, Stone, Glass and Wood
TTITLE11=Intro_4
TTITLE12=Starletta
TTITLE13=Intro_5
TTITLE14=Colone
TTITLE15=Down Home Girl
TTITLE16=Intro_6
TTITLE17=Lookout Mountain
TTITLE18=Be So Blue
TTITLE19=She's a Woman
TTITLE20=Monologue_2
TTITLE21=The Dope Smoking Song
TTITLE22=Monologue_3
TTITLE23=I knew the Bride(When She used to Rock N' Roll)
TTITLE24=Slaw
TTITLE25=High School Confidential
EXTD=YEAR: 2003
EXTT0=
EXTT1=
EXTT2=
EXTT3=
EXTT4=
EXTT5=
EXTT6=
EXTT7=
EXTT8=
EXTT9=
EXTT10=
EXTT11=
EXTT12=
EXTT13=
EXTT14=
EXTT15=
EXTT16=
EXTT17=
EXTT18=
EXTT19=
EXTT20=
EXTT21=
EXTT22=
EXTT23=
EXTT24=
EXTT25=
PLAYORDER=
